<svg xmlns="http://www.w3.org/2000/svg" xmlns:xlink="http://www.w3.org/1999/xlink" xmlns:lucid="lucid" width="1380.21" height="1440"><g transform="translate(420 -300)" lucid:page-tab-id="0_0"><path d="M-1696 0h3456v2656h-3456z" fill="#fff"/><path d="M530 340c0 11.05-8.95 20-20 20s-20-8.95-20-20 8.95-20 20-20 20 8.95 20 20z" stroke="#3a414a"/><path d="M828 890c17.67 0 32 17.9 32 40s-14.33 40-32 40h-96c-17.67 0-32-17.9-32-40s14.33-40 32-40z" stroke="#3a414a" fill="#fff"/><use xlink:href="#a" transform="matrix(1,0,0,1,705,895) translate(35.83833333333333 26.52777777777778)"/><use xlink:href="#b" transform="matrix(1,0,0,1,705,895) translate(89.60376543209875 26.52777777777778)"/><use xlink:href="#c" transform="matrix(1,0,0,1,705,895) translate(33.09141975308642 53.19444444444445)"/><path d="M828 740c17.67 0 32 17.9 32 40s-14.33 40-32 40h-96c-17.67 0-32-17.9-32-40s14.33-40 32-40z" stroke="#3a414a" fill="#fff"/><use xlink:href="#d" transform="matrix(1,0,0,1,705,745) translate(12.196358024691358 26.52777777777778)"/><use xlink:href="#c" transform="matrix(1,0,0,1,705,745) translate(33.09141975308642 53.19444444444445)"/><path d="M828 1040c17.67 0 32 17.9 32 40s-14.33 40-32 40h-96c-17.67 0-32-17.9-32-40s14.33-40 32-40z" stroke="#3a414a" fill="#fff"/><use xlink:href="#e" transform="matrix(1,0,0,1,705,1045) translate(12.721049382716055 26.52777777777778)"/><use xlink:href="#f" transform="matrix(1,0,0,1,705,1045) translate(74.38771604938272 26.52777777777778)"/><use xlink:href="#g" transform="matrix(1,0,0,1,705,1045) translate(106.42475308641976 26.52777777777778)"/><use xlink:href="#c" transform="matrix(1,0,0,1,705,1045) translate(33.09141975308642 53.19444444444445)"/><path d="M780 1121v53.62" stroke="#3a414a" fill="none"/><path d="M780.5 1121h-1v-.5h1z" stroke="#3a414a" stroke-width=".05" fill="#3a414a"/><path d="M780 1189.38l-4.63-14.27 9.26.02z" stroke="#3a414a" fill="#3a414a"/><path d="M775.2 1193.1a8 8 0 0 1 9.6 0l70.4 52.8a4.5 4.5 0 0 1 0 7.2l-70.4 52.8a8 8 0 0 1-9.6 0l-70.4-52.8a4.5 4.5 0 0 1 0-7.2z" stroke="#3a414a" fill="#fff"/><use xlink:href="#h" transform="matrix(1,0,0,1,705,1194.5) translate(43.554382716049375 59.02777777777778)"/><path d="M828 1420c17.67 0 32 17.9 32 40s-14.33 40-32 40h-96c-17.67 0-32-17.9-32-40s14.33-40 32-40z" stroke="#3a414a" fill="#fff"/><use xlink:href="#i" transform="matrix(1,0,0,1,705,1425) translate(40.498827160493825 26.52777777777778)"/><use xlink:href="#j" transform="matrix(1,0,0,1,705,1425) translate(20.776604938271596 53.19444444444445)"/><path d="M780 1501v122.12" stroke="#3a414a" fill="none"/><path d="M780.5 1501h-1v-.5h1z" stroke="#3a414a" stroke-width=".05" fill="#3a414a"/><path d="M780 1637.88l-4.63-14.26h9.26z" stroke="#3a414a" fill="#3a414a"/><path d="M820 1680c0 22.1-17.9 40-40 40s-40-17.9-40-40 17.9-40 40-40 40 17.9 40 40z" stroke="#3a414a" fill="#fff"/><use xlink:href="#k" transform="matrix(1,0,0,1,745,1645) translate(27.592592592592595 39.65277777777778)"/><path d="M800 1680c0 11.05-8.95 20-20 20s-20-8.95-20-20 8.95-20 20-20 20 8.95 20 20z" stroke="#3a414a"/><path d="M-22.3 660.27a8 8 0 0 1 9.6 0l70.4 52.8a4.5 4.5 0 0 1 0 7.2l-70.4 52.8a8 8 0 0 1-9.6 0l-70.4-52.8a4.5 4.5 0 0 1 0-7.2z" stroke="#3a414a" fill="#fff"/><use xlink:href="#l" transform="matrix(1,0,0,1,-92.5,661.6666666666667) translate(31.856851851851847 45.78777777777778)"/><use xlink:href="#m" transform="matrix(1,0,0,1,-92.5,661.6666666666667) translate(31.23956790123457 72.45444444444445)"/><path d="M-249.5 676.67c17.67 0 32 17.9 32 40s-14.33 40-32 40h-96c-17.67 0-32-17.9-32-40s14.33-40 32-40z" stroke="#3a414a" fill="#fff"/><use xlink:href="#n" transform="matrix(1,0,0,1,-372.5,681.6666666666667) translate(41.05438271604938 26.52777777777778)"/><use xlink:href="#j" transform="matrix(1,0,0,1,-372.5,681.6666666666667) translate(20.776604938271596 53.19444444444445)"/><path d="M30.5 900c17.67 0 32 17.9 32 40s-14.33 40-32 40h-96c-17.67 0-32-17.9-32-40s14.33-40 32-40z" stroke="#3a414a" fill="#fff"/><use xlink:href="#o" transform="matrix(1,0,0,1,-92.5,905) translate(40.49882716049382 26.52777777777778)"/><use xlink:href="#j" transform="matrix(1,0,0,1,-92.5,905) translate(20.776604938271596 53.19444444444445)"/><path d="M-297.5 757.67v365.45" stroke="#3a414a" fill="none"/><path d="M-297 757.68h-1v-.5h1z" stroke="#3a414a" stroke-width=".05" fill="#3a414a"/><path d="M-297.5 1137.88l-4.63-14.26h9.26z" stroke="#3a414a" fill="#3a414a"/><path d="M-236 1140c22.64 0 41 17.9 41 40s-18.36 40-41 40h-123c-22.64 0-41-17.9-41-40s18.36-40 41-40z" stroke="#3a414a" fill="#fff"/><use xlink:href="#p" transform="matrix(1,0,0,1,-395,1145) translate(13.646975308641993 26.52777777777778)"/><use xlink:href="#q" transform="matrix(1,0,0,1,-395,1145) translate(55.59141975308641 53.19444444444445)"/><path d="M568 400c17.67 0 32 17.9 32 40s-14.33 40-32 40h-96c-17.67 0-32-17.9-32-40s14.33-40 32-40z" stroke="#3a414a" fill="#fff"/><use xlink:href="#r" transform="matrix(1,0,0,1,445,405) translate(47.87037037037037 39.65277777777778)"/><path d="M358 940c17.67 0 32 17.9 32 40s-14.33 40-32 40h-96c-17.67 0-32-17.9-32-40s14.33-40 32-40z" stroke="#3a414a" fill="#fff"/><use xlink:href="#s" transform="matrix(1,0,0,1,235,945) translate(34.9124074074074 26.52777777777778)"/><use xlink:href="#c" transform="matrix(1,0,0,1,235,945) translate(33.09141975308642 53.19444444444445)"/><path d="M305.26 650.35a7.7 7.7 0 0 1 9.48 0l80.52 62.63a4.67 4.67 0 0 1 0 7.37l-80.52 62.63a7.7 7.7 0 0 1-9.48 0l-80.52-62.63a4.67 4.67 0 0 1 0-7.37z" stroke="#3a414a" fill="#fff"/><use xlink:href="#t" transform="matrix(1,0,0,1,225,651.6666666666667) translate(53.55438271604938 37.78777777777778)"/><use xlink:href="#u" transform="matrix(1,0,0,1,225,651.6666666666667) translate(61.208703703703705 64.45444444444445)"/><use xlink:href="#v" transform="matrix(1,0,0,1,225,651.6666666666667) translate(41.85685185185185 91.1211111111111)"/><path d="M-171.3 717.67h-27.2v-2h27.2zm75.3 0h-44.7v-2H-96z" stroke="#008a0e" stroke-width=".05" fill="#008a0e"/><path d="M-94.92 715.74l-.08.93.08.92-1.1.07v-2h1.13z" fill="#008a0e"/><path d="M-94.9 715.75l-.08.92.1.94-1.17.1v-2.06h1.2zm-1.1-.06v1.94l1.06-.07-.1-.9.1-.93v-.05z" stroke="#008a0e" stroke-width=".05" fill="#008a0e"/><path d="M-199.5 721.3l-14.26-4.63 14.26-4.64z" fill="#008a0e"/><path d="M-198.5 722.68l-18.5-6 18.5-6.02zm-12.03-6l10.03 3.25v-6.52z" stroke="#008a0e" stroke-width=".05" fill="#008a0e"/><use xlink:href="#w" transform="matrix(1,0,0,1,-171.30954391018014,706.0000000000001) translate(0 14.222222222222223)"/><path d="M-16.5 881h-2v-33h2zm0-54.33h-2v-50.5h2z" stroke="#e81313" stroke-width=".05" fill="#e81313"/><path d="M-17.5 775.17l1-.07v1.1h-2v-1.1z" fill="#e81313"/><path d="M-17.5 775.14l1.02-.06v1.14h-2.04v-1.14zm-.98 1.03h1.96v-1.04l-.98.06-.98-.07z" stroke="#e81313" stroke-width=".05" fill="#e81313"/><path d="M-17.5 896.26L-22.14 882h9.28z" fill="#e81313"/><path d="M-17.5 899.5l-6-18.5h12zm-3.26-16.5l3.26 10.03 3.26-10.03z" stroke="#e81313" stroke-width=".05" fill="#e81313"/><use xlink:href="#x" transform="matrix(1,0,0,1,-29.30246913580247,826.6671748959333) translate(0 14.222222222222223)"/><path d="M-297 1691.42l.07.88.2.84.33.8.45.73.56.66.67.56.73.44.8.33.84.2.88.07H727.05v1H-291.52l-1-.08-1-.23-.93-.4-.87-.53-.78-.66-.66-.78-.53-.87-.38-.95-.24-1-.08-1V1221h1z" stroke="#3a414a" stroke-width=".05" fill="#3a414a"/><path d="M-297 1221h-1v-.5h1z" fill="#3a414a"/><path d="M-296.98 1221.04h-1.04v-.57h1.04zm-1-.5v.45h.96v-.47z" stroke="#3a414a" stroke-width=".05" fill="#3a414a"/><path d="M741.82 1697.44l-14.27 4.64v-9.27z" fill="#3a414a"/><path d="M743.44 1697.44l-16.4 5.33v-10.65zm-15.4 3.95l12.16-3.96-12.15-3.95z" stroke="#3a414a" stroke-width=".05" fill="#3a414a"/><path d="M350.2 606a6 6 0 0 1 6-6h578a6 6 0 0 1 6 6v1.33a6 6 0 0 1-6 6h-578a6 6 0 0 1-6-6z" stroke="#3a414a"/><path d="M510 361v14a5 5 0 0 0 5 5h1.88a3.12 3.12 0 0 1 3.12 3.12" stroke="#3a414a" fill="none"/><path d="M509.98 360.5l.52-.02v.53h-1v-.56z" stroke="#3a414a" stroke-width=".05" fill="#3a414a"/><path d="M520 397.88l-4.63-14.26h9.26z" stroke="#3a414a" fill="#3a414a"/><path d="M520 481v77.36a6 6 0 0 1-6 6H316a6 6 0 0 0-6 6v61.48" stroke="#3a414a" fill="none"/><path d="M520.5 481h-1v-.5h1z" stroke="#3a414a" stroke-width=".05" fill="#3a414a"/><path d="M310 646.6l-4.63-14.26h9.26z" stroke="#3a414a" fill="#3a414a"/><path d="M531 340h195.07a6 6 0 0 1 6 6v237.28" stroke="#3a414a" fill="none"/><path d="M531 340.5h-.56l.06-.48-.02-.52h.53z" stroke="#3a414a" stroke-width=".05" fill="#3a414a"/><path d="M732.07 598.05l-4.64-14.27h9.28z" stroke="#3a414a" fill="#3a414a"/><path d="M820.57 614.17v56.4a6 6 0 0 1-6 6h-45.9a6 6 0 0 0-6 6v40.55" stroke="#3a414a" fill="none"/><path d="M821.07 614.18h-1v-.35h1z" stroke="#3a414a" stroke-width=".05" fill="#3a414a"/><path d="M762.67 737.88l-4.64-14.26h9.27z" stroke="#3a414a" fill="#3a414a"/><path d="M780 821v52.12" stroke="#3a414a" fill="none"/><path d="M780.5 821h-1v-.5h1z" stroke="#3a414a" stroke-width=".05" fill="#3a414a"/><path d="M780 887.88l-4.63-14.26h9.26z" stroke="#3a414a" fill="#3a414a"/><path d="M780 971v52.12" stroke="#3a414a" fill="none"/><path d="M780.5 971h-1v-.5h1z" stroke="#3a414a" stroke-width=".05" fill="#3a414a"/><path d="M780 1037.88l-4.63-14.26h9.26z" stroke="#3a414a" fill="#3a414a"/><path d="M781 1401h-2v-26.58h2zm0-47.92h-2V1309h2z" stroke="#008a0e" stroke-width=".05" fill="#008a0e"/><path d="M780 1308l1-.06v1.1h-2v-1.1z" fill="#008a0e"/><path d="M780 1307.98l1.02-.07v1.15H779v-1.14zm-.98 1.02H781v-1.04l-.98.07-.98-.07z" stroke="#008a0e" stroke-width=".05" fill="#008a0e"/><path d="M780 1416.26l-4.63-14.26h9.26z" fill="#008a0e"/><path d="M780 1419.5l-6-18.5h12zm-3.26-16.5l3.26 10.03 3.26-10.03z" stroke="#008a0e" stroke-width=".05" fill="#008a0e"/><use xlink:href="#w" transform="matrix(1,0,0,1,764.6913580246913,1353.0838415626) translate(0 14.222222222222223)"/><path d="M898.5 1243.54l-.08 1.06-.26 1.06-.42 1.02-.57.94-.72.83-.83.72-.94.57-1 .42-1.08.26-1.06.08H858.5v-2h32.96l.82-.07.77-.18.72-.3.67-.4.6-.52.5-.6.4-.66.3-.73.2-.76.06-.82V726.92h2zm-5.9-804.46l1.07.26 1 .42.95.57.83.72.72.83.57.94.42 1.02.26 1.06.08 1.06v259.62h-2V446.04l-.06-.82-.2-.76-.3-.73-.4-.67-.5-.6-.6-.5-.67-.4-.72-.3-.77-.2-.82-.06H619v-2h272.54z" stroke="#e81313" stroke-width=".05" fill="#e81313"/><path d="M858.53 1250.5h-1.14l.1-1-.08-.92 1.1-.08z" fill="#e81313"/><path d="M858.55 1250.53h-1.18l.1-1.03-.08-.95 1.15-.08zm-1.1-1.93l.08.9-.1.97h1.07v-1.94z" stroke="#e81313" stroke-width=".05" fill="#e81313"/><path d="M618 444.63L603.74 440l14.26-4.63z" fill="#e81313"/><path d="M619 446l-18.5-6 18.5-6zm-12.03-6l10.03 3.26v-6.52z" stroke="#e81313" stroke-width=".05" fill="#e81313"/><use xlink:href="#x" transform="matrix(1,0,0,1,885.6996458432044,705.5824313984618) translate(0 14.222222222222223)"/><path d="M288 400c17.67 0 32 17.9 32 40s-14.33 40-32 40h-96c-17.67 0-32-17.9-32-40s14.33-40 32-40z" stroke="#3a414a" fill="#fff"/><use xlink:href="#y" transform="matrix(1,0,0,1,165,405) translate(33.73456790123456 39.65277777777778)"/><path d="M510 361v13a6 6 0 0 1-6 6H243.12a3.12 3.12 0 0 0-3.12 3.12" stroke="#3a414a" fill="none"/><path d="M509.98 360.5l.52-.02v.53h-1v-.56z" stroke="#3a414a" stroke-width=".05" fill="#3a414a"/><path d="M240 397.88l-4.63-14.26h9.26z" stroke="#3a414a" fill="#3a414a"/><path d="M321 440h102.12" stroke="#3a414a" fill="none"/><path d="M321 440.5h-.53l.03-.5-.02-.5h.53z" stroke="#3a414a" stroke-width=".05" fill="#3a414a"/><path d="M437.88 440l-14.26 4.63v-9.26z" stroke="#3a414a" fill="#3a414a"/><path d="M240 481v73a6 6 0 0 0 6 6h302.67a6 6 0 0 1 6 6v17.12" stroke="#3a414a" fill="none"/><path d="M240.5 481h-1v-.5h1z" stroke="#3a414a" stroke-width=".05" fill="#3a414a"/><path d="M554.67 597.88l-4.64-14.26h9.27z" stroke="#3a414a" fill="#3a414a"/><path d="M699 1460H567.1a6 6 0 0 1-6-6v-248.73a6 6 0 0 0-6-6H439.05" stroke="#3a414a" fill="none"/><path d="M699.5 1460l.02.5H699v-1h.53z" stroke="#3a414a" stroke-width=".05" fill="#3a414a"/><path d="M424.3 1199.27l14.26-4.63v9.27z" stroke="#3a414a" fill="#3a414a"/><path d="M471 719v2h-15.66v-2zm-72.43-1.33v-2h33.16v2z" stroke="#e81313" stroke-width=".05" fill="#e81313"/><path d="M398.6 717.67h-1.14l.1-1-.08-.94 1.1-.06z" fill="#e81313"/><path d="M398.62 717.7h-1.18l.1-1.03-.1-.96 1.18-.06zm-1.1-1.95l.07.92-.1.97h1.07v-1.95z" stroke="#e81313" stroke-width=".05" fill="#e81313"/><path d="M486.26 720L472 724.63v-9.26z" fill="#e81313"/><path d="M489.5 720l-18.5 6v-12zm-16.5 3.26l10.03-3.26-10.03-3.26z" stroke="#e81313" stroke-width=".05" fill="#e81313"/><use xlink:href="#x" transform="matrix(1,0,0,1,431.73114186260165,707.6666666666667) translate(0 14.222222222222223)"/><path d="M618 680c17.67 0 32 17.9 32 40s-14.33 40-32 40h-96c-17.67 0-32-17.9-32-40s14.33-40 32-40z" stroke="#3a414a" fill="#fff"/><use xlink:href="#z" transform="matrix(1,0,0,1,495,685) translate(50.40123456790124 39.65277777777778)"/><path d="M311 921h-2v-48.03h2zm0-69.36h-2V786.1h2z" stroke="#008a0e" stroke-width=".05" fill="#008a0e"/><path d="M310 785.1l1-.06v1.1h-2v-1.1z" fill="#008a0e"/><path d="M310 785.08l1.02-.06v1.14h-2.04v-1.14zm-.98 1.03h1.96v-1.03l-.98.06-.98-.06z" stroke="#008a0e" stroke-width=".05" fill="#008a0e"/><path d="M310 936.26L305.37 922h9.26z" fill="#008a0e"/><path d="M310 939.5l-6-18.5h12zm-3.26-16.5l3.26 10.03 3.26-10.03z" stroke="#008a0e" stroke-width=".05" fill="#008a0e"/><use xlink:href="#w" transform="matrix(1,0,0,1,294.69135802469134,851.637879567454) translate(0 14.222222222222223)"/><path d="M330.37 1132.95a7.7 7.7 0 0 1 9.47 0l80.53 62.64a4.67 4.67 0 0 1 0 7.36l-80.53 62.63a7.7 7.7 0 0 1-9.47 0l-80.53-62.64a4.67 4.67 0 0 1 0-7.37z" stroke="#3a414a" fill="#fff"/><g><use xlink:href="#t" transform="matrix(1,0,0,1,250.10571081409466,1134.2709599027946) translate(53.55438271604938 37.78777777777778)"/><use xlink:href="#u" transform="matrix(1,0,0,1,250.10571081409466,1134.2709599027946) translate(61.208703703703705 64.45444444444445)"/><use xlink:href="#v" transform="matrix(1,0,0,1,250.10571081409466,1134.2709599027946) translate(41.85685185185185 91.1211111111111)"/></g><path d="M154.77 1193.23l.06.82.2.77.3.72.4.67.5.6.6.5.67.42.73.3.76.2.8.05h86.74v2h-86.8l-1.06-.08-1.07-.27-1-.42-.95-.56-.83-.72-.72-.83-.57-.95-.42-1.02-.25-1.06-.08-1.06V968.65h2zm-5.9-477.48l1.06.26 1.02.43.94.57.82.72.72.83.57.94.43 1 .26 1.07.07 1.06V947.3h-2V722.7l-.06-.82-.18-.76-.3-.72-.4-.67-.52-.6-.6-.5-.66-.42-.73-.3-.75-.17-.82-.06H78.5v-2h69.3z" stroke="#008a0e" stroke-width=".05" fill="#008a0e"/><path d="M247.62 1198.34l-.08.93.08.94-1.1.07v-2h1.12z" fill="#008a0e"/><path d="M247.65 1198.34l-.1.93.1.96-1.16.07v-2.05h1.18zm-1.1-.04v1.94l1.05-.06-.1-.9.1-.95v-.03z" stroke="#008a0e" stroke-width=".05" fill="#008a0e"/><path d="M77.5 721.3l-14.26-4.63 14.26-4.64z" fill="#008a0e"/><path d="M78.5 722.68l-18.5-6 18.5-6.02zm-12.03-6l10.03 3.25v-6.52z" stroke="#008a0e" stroke-width=".05" fill="#008a0e"/><g><use xlink:href="#w" transform="matrix(1,0,0,1,138.46150436820608,947.3021466180641) translate(0 14.222222222222223)"/></g><path d="M571 1064.04l-.08 1.06-.26 1.06-.42 1.02-.57.94-.72.83-.83.72-.94.57-1.02.42-1.06.26-1.06.08h-222.9l-.82.07-.76.18-.72.3-.67.4-.6.52-.5.6-.42.66-.3.73-.18.76-.06.82v53.8h-2v-53.88l.1-1.06.25-1.06.42-1.02.57-.94.7-.83.85-.72.93-.57 1-.42 1.08-.26 1.07-.08h222.9l.8-.07.77-.18.73-.3.67-.4.6-.52.5-.6.4-.66.3-.73.2-.76.06-.82V779h2z" stroke="#e81313" stroke-width=".05" fill="#e81313"/><path d="M336.1 1130.9l-1-.07-1 .07v-1.1h2z" fill="#e81313"/><path d="M336.13 1130.92l-1.02-.07-1.02.07v-1.14h2.05zm-2-1.1v1.05l.98-.07.98.07v-1.04z" stroke="#e81313" stroke-width=".05" fill="#e81313"/><path d="M574.63 778h-9.26l4.63-14.26z" fill="#e81313"/><path d="M576 779h-12l6-18.5zm-9.26-2h6.52L570 766.97z" stroke="#e81313" stroke-width=".05" fill="#e81313"/><g><use xlink:href="#x" transform="matrix(1,0,0,1,343.32523288780885,1074) translate(0 14.222222222222223)"/></g><defs><path fill="#3a414a" d="M137 0h-34L2-248h35l83 218 83-218h36" id="A"/><path fill="#3a414a" d="M24-231v-30h32v30H24zM24 0v-190h32V0H24" id="B"/><path fill="#3a414a" d="M100-194c63 0 86 42 84 106H49c0 40 14 67 53 68 26 1 43-12 49-29l28 8c-11 28-37 45-77 45C44 4 14-33 15-96c1-61 26-98 85-98zm52 81c6-60-76-77-97-28-3 7-6 17-6 28h103" id="C"/><path fill="#3a414a" d="M206 0h-36l-40-164L89 0H53L-1-190h32L70-26l43-164h34l41 164 42-164h31" id="D"/><g id="a"><use transform="matrix(0.06172839506172839,0,0,0.06172839506172839,0,0)" xlink:href="#A"/><use transform="matrix(0.06172839506172839,0,0,0.06172839506172839,14.382716049382715,0)" xlink:href="#B"/><use transform="matrix(0.06172839506172839,0,0,0.06172839506172839,19.25925925925926,0)" xlink:href="#C"/><use transform="matrix(0.06172839506172839,0,0,0.06172839506172839,31.604938271604937,0)" xlink:href="#D"/></g><path fill="#3a414a" d="M205 0l-28-72H64L36 0H1l101-248h38L239 0h-34zm-38-99l-47-123c-12 45-31 82-46 123h93" id="E"/><path fill="#3a414a" d="M24 0v-261h32V0H24" id="F"/><g id="b"><use transform="matrix(0.06172839506172839,0,0,0.06172839506172839,0,0)" xlink:href="#E"/><use transform="matrix(0.06172839506172839,0,0,0.06172839506172839,14.814814814814813,0)" xlink:href="#F"/><use transform="matrix(0.06172839506172839,0,0,0.06172839506172839,19.691358024691354,0)" xlink:href="#F"/></g><path fill="#3a414a" d="M30-248c87 1 191-15 191 75 0 78-77 80-158 76V0H30v-248zm33 125c57 0 124 11 124-50 0-59-68-47-124-48v98" id="G"/><path fill="#3a414a" d="M114-163C36-179 61-72 57 0H25l-1-190h30c1 12-1 29 2 39 6-27 23-49 58-41v29" id="H"/><path fill="#3a414a" d="M100-194c62-1 85 37 85 99 1 63-27 99-86 99S16-35 15-95c0-66 28-99 85-99zM99-20c44 1 53-31 53-75 0-43-8-75-51-75s-53 32-53 75 10 74 51 75" id="I"/><path fill="#3a414a" d="M115-194c55 1 70 41 70 98S169 2 115 4C84 4 66-9 55-30l1 105H24l-1-265h31l2 30c10-21 28-34 59-34zm-8 174c40 0 45-34 45-75s-6-73-45-74c-42 0-51 32-51 76 0 43 10 73 51 73" id="J"/><path fill="#3a414a" d="M59-47c-2 24 18 29 38 22v24C64 9 27 4 27-40v-127H5v-23h24l9-43h21v43h35v23H59v120" id="K"/><path fill="#3a414a" d="M179-190L93 31C79 59 56 82 12 73V49c39 6 53-20 64-50L1-190h34L92-34l54-156h33" id="L"/><g id="c"><use transform="matrix(0.06172839506172839,0,0,0.06172839506172839,0,0)" xlink:href="#G"/><use transform="matrix(0.06172839506172839,0,0,0.06172839506172839,14.814814814814813,0)" xlink:href="#H"/><use transform="matrix(0.06172839506172839,0,0,0.06172839506172839,22.160493827160494,0)" xlink:href="#I"/><use transform="matrix(0.06172839506172839,0,0,0.06172839506172839,34.50617283950617,0)" xlink:href="#J"/><use transform="matrix(0.06172839506172839,0,0,0.06172839506172839,46.85185185185185,0)" xlink:href="#C"/><use transform="matrix(0.06172839506172839,0,0,0.06172839506172839,59.197530864197525,0)" xlink:href="#H"/><use transform="matrix(0.06172839506172839,0,0,0.06172839506172839,66.5432098765432,0)" xlink:href="#K"/><use transform="matrix(0.06172839506172839,0,0,0.06172839506172839,72.71604938271604,0)" xlink:href="#L"/></g><path fill="#3a414a" d="M185-189c-5-48-123-54-124 2 14 75 158 14 163 119 3 78-121 87-175 55-17-10-28-26-33-46l33-7c5 56 141 63 141-1 0-78-155-14-162-118-5-82 145-84 179-34 5 7 8 16 11 25" id="M"/><path fill="#3a414a" d="M141-36C126-15 110 5 73 4 37 3 15-17 15-53c-1-64 63-63 125-63 3-35-9-54-41-54-24 1-41 7-42 31l-33-3c5-37 33-52 76-52 45 0 72 20 72 64v82c-1 20 7 32 28 27v20c-31 9-61-2-59-35zM48-53c0 20 12 33 32 33 41-3 63-29 60-74-43 2-92-5-92 41" id="N"/><path fill="#3a414a" d="M96-169c-40 0-48 33-48 73s9 75 48 75c24 0 41-14 43-38l32 2c-6 37-31 61-74 61-59 0-76-41-82-99-10-93 101-131 147-64 4 7 5 14 7 22l-32 3c-4-21-16-35-41-35" id="O"/><path fill="#3a414a" d="M106-169C34-169 62-67 57 0H25v-261h32l-1 103c12-21 28-36 61-36 89 0 53 116 60 194h-32v-121c2-32-8-49-39-48" id="P"/><path fill="#3a414a" d="M0 4l72-265h28L28 4H0" id="Q"/><path fill="#3a414a" d="M63-220v92h138v28H63V0H30v-248h175v28H63" id="R"/><g id="d"><use transform="matrix(0.06172839506172839,0,0,0.06172839506172839,0,0)" xlink:href="#M"/><use transform="matrix(0.06172839506172839,0,0,0.06172839506172839,14.814814814814813,0)" xlink:href="#C"/><use transform="matrix(0.06172839506172839,0,0,0.06172839506172839,27.160493827160494,0)" xlink:href="#N"/><use transform="matrix(0.06172839506172839,0,0,0.06172839506172839,39.50617283950617,0)" xlink:href="#H"/><use transform="matrix(0.06172839506172839,0,0,0.06172839506172839,46.85185185185185,0)" xlink:href="#O"/><use transform="matrix(0.06172839506172839,0,0,0.06172839506172839,57.96296296296296,0)" xlink:href="#P"/><use transform="matrix(0.06172839506172839,0,0,0.06172839506172839,70.30864197530865,0)" xlink:href="#Q"/><use transform="matrix(0.06172839506172839,0,0,0.06172839506172839,76.48148148148148,0)" xlink:href="#R"/><use transform="matrix(0.06172839506172839,0,0,0.06172839506172839,90,0)" xlink:href="#B"/><use transform="matrix(0.06172839506172839,0,0,0.06172839506172839,94.87654320987654,0)" xlink:href="#F"/><use transform="matrix(0.06172839506172839,0,0,0.06172839506172839,99.75308641975309,0)" xlink:href="#K"/><use transform="matrix(0.06172839506172839,0,0,0.06172839506172839,105.92592592592592,0)" xlink:href="#C"/><use transform="matrix(0.06172839506172839,0,0,0.06172839506172839,118.27160493827161,0)" xlink:href="#H"/></g><g id="e"><use transform="matrix(0.06172839506172839,0,0,0.06172839506172839,0,0)" xlink:href="#E"/><use transform="matrix(0.06172839506172839,0,0,0.06172839506172839,14.814814814814813,0)" xlink:href="#J"/><use transform="matrix(0.06172839506172839,0,0,0.06172839506172839,27.160493827160494,0)" xlink:href="#J"/><use transform="matrix(0.06172839506172839,0,0,0.06172839506172839,39.50617283950617,0)" xlink:href="#F"/><use transform="matrix(0.06172839506172839,0,0,0.06172839506172839,44.382716049382715,0)" xlink:href="#L"/></g><path fill="#3a414a" d="M101-234c-31-9-42 10-38 44h38v23H63V0H32v-167H5v-23h27c-7-52 17-82 69-68v24" id="S"/><g id="f"><use transform="matrix(0.06172839506172839,0,0,0.06172839506172839,0,0)" xlink:href="#S"/><use transform="matrix(0.06172839506172839,0,0,0.06172839506172839,6.172839506172839,0)" xlink:href="#I"/><use transform="matrix(0.06172839506172839,0,0,0.06172839506172839,18.51851851851852,0)" xlink:href="#H"/></g><g id="g"><use transform="matrix(0.06172839506172839,0,0,0.06172839506172839,0,0)" xlink:href="#K"/><use transform="matrix(0.06172839506172839,0,0,0.06172839506172839,6.172839506172839,0)" xlink:href="#P"/><use transform="matrix(0.06172839506172839,0,0,0.06172839506172839,18.51851851851852,0)" xlink:href="#C"/></g><path fill="#3a414a" d="M212-179c-10-28-35-45-73-45-59 0-87 40-87 99 0 60 29 101 89 101 43 0 62-24 78-52l27 14C228-24 195 4 139 4 59 4 22-46 18-125c-6-104 99-153 187-111 19 9 31 26 39 46" id="T"/><path fill="#3a414a" d="M143 0L79-87 56-68V0H24v-261h32v163l83-92h37l-77 82L181 0h-38" id="U"/><g id="h"><use transform="matrix(0.06172839506172839,0,0,0.06172839506172839,0,0)" xlink:href="#T"/><use transform="matrix(0.06172839506172839,0,0,0.06172839506172839,15.987654320987653,0)" xlink:href="#P"/><use transform="matrix(0.06172839506172839,0,0,0.06172839506172839,28.333333333333332,0)" xlink:href="#C"/><use transform="matrix(0.06172839506172839,0,0,0.06172839506172839,40.67901234567901,0)" xlink:href="#O"/><use transform="matrix(0.06172839506172839,0,0,0.06172839506172839,51.79012345679013,0)" xlink:href="#U"/></g><path fill="#3a414a" d="M84 4C-5 8 30-112 23-190h32v120c0 31 7 50 39 49 72-2 45-101 50-169h31l1 190h-30c-1-10 1-25-2-33-11 22-28 36-60 37" id="V"/><path fill="#3a414a" d="M115-194c53 0 69 39 70 98 0 66-23 100-70 100C84 3 66-7 56-30L54 0H23l1-261h32v101c10-23 28-34 59-34zm-8 174c40 0 45-34 45-75 0-40-5-75-45-74-42 0-51 32-51 76 0 43 10 73 51 73" id="W"/><path fill="#3a414a" d="M210-169c-67 3-38 105-44 169h-31v-121c0-29-5-50-35-48C34-165 62-65 56 0H25l-1-190h30c1 10-1 24 2 32 10-44 99-50 107 0 11-21 27-35 58-36 85-2 47 119 55 194h-31v-121c0-29-5-49-35-48" id="X"/><g id="i"><use transform="matrix(0.06172839506172839,0,0,0.06172839506172839,0,0)" xlink:href="#M"/><use transform="matrix(0.06172839506172839,0,0,0.06172839506172839,14.814814814814813,0)" xlink:href="#V"/><use transform="matrix(0.06172839506172839,0,0,0.06172839506172839,27.160493827160494,0)" xlink:href="#W"/><use transform="matrix(0.06172839506172839,0,0,0.06172839506172839,39.50617283950617,0)" xlink:href="#X"/><use transform="matrix(0.06172839506172839,0,0,0.06172839506172839,57.96296296296296,0)" xlink:href="#B"/><use transform="matrix(0.06172839506172839,0,0,0.06172839506172839,62.839506172839506,0)" xlink:href="#K"/></g><path fill="#3a414a" d="M117-194c89-4 53 116 60 194h-32v-121c0-31-8-49-39-48C34-167 62-67 57 0H25l-1-190h30c1 10-1 24 2 32 11-22 29-35 61-36" id="Y"/><g id="j"><use transform="matrix(0.06172839506172839,0,0,0.06172839506172839,0,0)" xlink:href="#E"/><use transform="matrix(0.06172839506172839,0,0,0.06172839506172839,14.814814814814813,0)" xlink:href="#J"/><use transform="matrix(0.06172839506172839,0,0,0.06172839506172839,27.160493827160494,0)" xlink:href="#J"/><use transform="matrix(0.06172839506172839,0,0,0.06172839506172839,39.50617283950617,0)" xlink:href="#F"/><use transform="matrix(0.06172839506172839,0,0,0.06172839506172839,44.382716049382715,0)" xlink:href="#B"/><use transform="matrix(0.06172839506172839,0,0,0.06172839506172839,49.25925925925926,0)" xlink:href="#O"/><use transform="matrix(0.06172839506172839,0,0,0.06172839506172839,60.37037037037037,0)" xlink:href="#N"/><use transform="matrix(0.06172839506172839,0,0,0.06172839506172839,72.71604938271605,0)" xlink:href="#K"/><use transform="matrix(0.06172839506172839,0,0,0.06172839506172839,78.88888888888889,0)" xlink:href="#B"/><use transform="matrix(0.06172839506172839,0,0,0.06172839506172839,83.76543209876543,0)" xlink:href="#I"/><use transform="matrix(0.06172839506172839,0,0,0.06172839506172839,96.11111111111111,0)" xlink:href="#Y"/></g><use transform="matrix(0.06172839506172839,0,0,0.06172839506172839,0,0)" xlink:href="#E" id="k"/><path fill="#3a414a" d="M30 0v-248h33v221h125V0H30" id="Z"/><path fill="#3a414a" d="M85-194c31 0 48 13 60 33l-1-100h32l1 261h-30c-2-10 0-23-3-31C134-8 116 4 85 4 32 4 16-35 15-94c0-66 23-100 70-100zm9 24c-40 0-46 34-46 75 0 40 6 74 45 74 42 0 51-32 51-76 0-42-9-74-50-73" id="aa"/><g id="l"><use transform="matrix(0.06172839506172839,0,0,0.06172839506172839,0,0)" xlink:href="#Z"/><use transform="matrix(0.06172839506172839,0,0,0.06172839506172839,12.345679012345679,0)" xlink:href="#N"/><use transform="matrix(0.06172839506172839,0,0,0.06172839506172839,24.691358024691358,0)" xlink:href="#Y"/><use transform="matrix(0.06172839506172839,0,0,0.06172839506172839,37.03703703703704,0)" xlink:href="#aa"/><use transform="matrix(0.06172839506172839,0,0,0.06172839506172839,49.382716049382715,0)" xlink:href="#F"/><use transform="matrix(0.06172839506172839,0,0,0.06172839506172839,54.25925925925926,0)" xlink:href="#I"/><use transform="matrix(0.06172839506172839,0,0,0.06172839506172839,66.60493827160494,0)" xlink:href="#H"/><use transform="matrix(0.06172839506172839,0,0,0.06172839506172839,73.95061728395062,0)" xlink:href="#aa"/></g><path fill="#3a414a" d="M108 0H70L1-190h34L89-25l56-165h34" id="ab"/><g id="m"><use transform="matrix(0.06172839506172839,0,0,0.06172839506172839,0,0)" xlink:href="#E"/><use transform="matrix(0.06172839506172839,0,0,0.06172839506172839,14.814814814814813,0)" xlink:href="#J"/><use transform="matrix(0.06172839506172839,0,0,0.06172839506172839,27.160493827160494,0)" xlink:href="#J"/><use transform="matrix(0.06172839506172839,0,0,0.06172839506172839,39.50617283950617,0)" xlink:href="#H"/><use transform="matrix(0.06172839506172839,0,0,0.06172839506172839,46.85185185185185,0)" xlink:href="#I"/><use transform="matrix(0.06172839506172839,0,0,0.06172839506172839,59.197530864197525,0)" xlink:href="#ab"/><use transform="matrix(0.06172839506172839,0,0,0.06172839506172839,70.30864197530863,0)" xlink:href="#N"/><use transform="matrix(0.06172839506172839,0,0,0.06172839506172839,82.65432098765432,0)" xlink:href="#F"/></g><g id="n"><use transform="matrix(0.06172839506172839,0,0,0.06172839506172839,0,0)" xlink:href="#E"/><use transform="matrix(0.06172839506172839,0,0,0.06172839506172839,14.814814814814813,0)" xlink:href="#O"/><use transform="matrix(0.06172839506172839,0,0,0.06172839506172839,25.925925925925924,0)" xlink:href="#O"/><use transform="matrix(0.06172839506172839,0,0,0.06172839506172839,37.03703703703704,0)" xlink:href="#C"/><use transform="matrix(0.06172839506172839,0,0,0.06172839506172839,49.382716049382715,0)" xlink:href="#J"/><use transform="matrix(0.06172839506172839,0,0,0.06172839506172839,61.72839506172839,0)" xlink:href="#K"/></g><g id="o"><use transform="matrix(0.06172839506172839,0,0,0.06172839506172839,0,0)" xlink:href="#T"/><use transform="matrix(0.06172839506172839,0,0,0.06172839506172839,15.987654320987653,0)" xlink:href="#N"/><use transform="matrix(0.06172839506172839,0,0,0.06172839506172839,28.333333333333332,0)" xlink:href="#Y"/><use transform="matrix(0.06172839506172839,0,0,0.06172839506172839,40.67901234567901,0)" xlink:href="#O"/><use transform="matrix(0.06172839506172839,0,0,0.06172839506172839,51.79012345679013,0)" xlink:href="#C"/><use transform="matrix(0.06172839506172839,0,0,0.06172839506172839,64.13580246913581,0)" xlink:href="#F"/></g><g id="p"><use transform="matrix(0.06172839506172839,0,0,0.06172839506172839,0,0)" xlink:href="#G"/><use transform="matrix(0.06172839506172839,0,0,0.06172839506172839,14.814814814814813,0)" xlink:href="#H"/><use transform="matrix(0.06172839506172839,0,0,0.06172839506172839,22.160493827160494,0)" xlink:href="#C"/><use transform="matrix(0.06172839506172839,0,0,0.06172839506172839,34.50617283950617,0)" xlink:href="#J"/><use transform="matrix(0.06172839506172839,0,0,0.06172839506172839,46.85185185185185,0)" xlink:href="#N"/><use transform="matrix(0.06172839506172839,0,0,0.06172839506172839,59.197530864197525,0)" xlink:href="#H"/><use transform="matrix(0.06172839506172839,0,0,0.06172839506172839,66.5432098765432,0)" xlink:href="#C"/><use transform="matrix(0.06172839506172839,0,0,0.06172839506172839,78.88888888888889,0)" xlink:href="#Q"/><use transform="matrix(0.06172839506172839,0,0,0.06172839506172839,85.06172839506172,0)" xlink:href="#E"/><use transform="matrix(0.06172839506172839,0,0,0.06172839506172839,99.87654320987653,0)" xlink:href="#J"/><use transform="matrix(0.06172839506172839,0,0,0.06172839506172839,112.22222222222221,0)" xlink:href="#J"/><use transform="matrix(0.06172839506172839,0,0,0.06172839506172839,124.5679012345679,0)" xlink:href="#H"/><use transform="matrix(0.06172839506172839,0,0,0.06172839506172839,131.91358024691357,0)" xlink:href="#I"/><use transform="matrix(0.06172839506172839,0,0,0.06172839506172839,144.25925925925924,0)" xlink:href="#ab"/><use transform="matrix(0.06172839506172839,0,0,0.06172839506172839,155.37037037037035,0)" xlink:href="#C"/></g><g id="q"><use transform="matrix(0.06172839506172839,0,0,0.06172839506172839,0,0)" xlink:href="#T"/><use transform="matrix(0.06172839506172839,0,0,0.06172839506172839,15.987654320987653,0)" xlink:href="#I"/><use transform="matrix(0.06172839506172839,0,0,0.06172839506172839,28.333333333333332,0)" xlink:href="#Y"/><use transform="matrix(0.06172839506172839,0,0,0.06172839506172839,40.67901234567901,0)" xlink:href="#K"/><use transform="matrix(0.06172839506172839,0,0,0.06172839506172839,46.851851851851855,0)" xlink:href="#H"/><use transform="matrix(0.06172839506172839,0,0,0.06172839506172839,54.19753086419753,0)" xlink:href="#N"/><use transform="matrix(0.06172839506172839,0,0,0.06172839506172839,66.54320987654322,0)" xlink:href="#O"/><use transform="matrix(0.06172839506172839,0,0,0.06172839506172839,77.65432098765433,0)" xlink:href="#K"/></g><path fill="#3a414a" d="M177-190C167-65 218 103 67 71c-23-6-38-20-44-43l32-5c15 47 100 32 89-28v-30C133-14 115 1 83 1 29 1 15-40 15-95c0-56 16-97 71-98 29-1 48 16 59 35 1-10 0-23 2-32h30zM94-22c36 0 50-32 50-73 0-42-14-75-50-75-39 0-46 34-46 75s6 73 46 73" id="ac"/><g id="r"><use transform="matrix(0.06172839506172839,0,0,0.06172839506172839,0,0)" xlink:href="#Z"/><use transform="matrix(0.06172839506172839,0,0,0.06172839506172839,12.345679012345679,0)" xlink:href="#I"/><use transform="matrix(0.06172839506172839,0,0,0.06172839506172839,24.691358024691358,0)" xlink:href="#ac"/><use transform="matrix(0.06172839506172839,0,0,0.06172839506172839,37.03703703703704,0)" xlink:href="#B"/><use transform="matrix(0.06172839506172839,0,0,0.06172839506172839,41.91358024691358,0)" xlink:href="#Y"/></g><path fill="#3a414a" d="M240 0l2-218c-23 76-54 145-80 218h-23L58-218 59 0H30v-248h44l77 211c21-75 51-140 76-211h43V0h-30" id="ad"/><g id="s"><use transform="matrix(0.06172839506172839,0,0,0.06172839506172839,0,0)" xlink:href="#ad"/><use transform="matrix(0.06172839506172839,0,0,0.06172839506172839,18.456790123456788,0)" xlink:href="#N"/><use transform="matrix(0.06172839506172839,0,0,0.06172839506172839,30.80246913580247,0)" xlink:href="#Y"/><use transform="matrix(0.06172839506172839,0,0,0.06172839506172839,43.148148148148145,0)" xlink:href="#N"/><use transform="matrix(0.06172839506172839,0,0,0.06172839506172839,55.49382716049382,0)" xlink:href="#ac"/><use transform="matrix(0.06172839506172839,0,0,0.06172839506172839,67.8395061728395,0)" xlink:href="#C"/></g><g id="t"><use transform="matrix(0.06172839506172839,0,0,0.06172839506172839,0,0)" xlink:href="#T"/><use transform="matrix(0.06172839506172839,0,0,0.06172839506172839,15.987654320987653,0)" xlink:href="#P"/><use transform="matrix(0.06172839506172839,0,0,0.06172839506172839,28.333333333333332,0)" xlink:href="#C"/><use transform="matrix(0.06172839506172839,0,0,0.06172839506172839,40.67901234567901,0)" xlink:href="#O"/><use transform="matrix(0.06172839506172839,0,0,0.06172839506172839,51.79012345679013,0)" xlink:href="#U"/></g><g id="u"><use transform="matrix(0.06172839506172839,0,0,0.06172839506172839,0,0)" xlink:href="#A"/><use transform="matrix(0.06172839506172839,0,0,0.06172839506172839,13.148148148148147,0)" xlink:href="#N"/><use transform="matrix(0.06172839506172839,0,0,0.06172839506172839,25.493827160493826,0)" xlink:href="#F"/><use transform="matrix(0.06172839506172839,0,0,0.06172839506172839,30.370370370370367,0)" xlink:href="#B"/><use transform="matrix(0.06172839506172839,0,0,0.06172839506172839,35.24691358024691,0)" xlink:href="#aa"/></g><g id="v"><use transform="matrix(0.06172839506172839,0,0,0.06172839506172839,0,0)" xlink:href="#Z"/><use transform="matrix(0.06172839506172839,0,0,0.06172839506172839,12.345679012345679,0)" xlink:href="#N"/><use transform="matrix(0.06172839506172839,0,0,0.06172839506172839,24.691358024691358,0)" xlink:href="#Y"/><use transform="matrix(0.06172839506172839,0,0,0.06172839506172839,37.03703703703704,0)" xlink:href="#aa"/><use transform="matrix(0.06172839506172839,0,0,0.06172839506172839,49.382716049382715,0)" xlink:href="#F"/><use transform="matrix(0.06172839506172839,0,0,0.06172839506172839,54.25925925925926,0)" xlink:href="#I"/><use transform="matrix(0.06172839506172839,0,0,0.06172839506172839,66.60493827160494,0)" xlink:href="#H"/><use transform="matrix(0.06172839506172839,0,0,0.06172839506172839,73.95061728395062,0)" xlink:href="#aa"/></g><path fill="#333" d="M146-102V0H94v-102L6-248h54l60 105 60-105h54" id="ae"/><path fill="#333" d="M185-48c-13 30-37 53-82 52C43 2 14-33 14-96s30-98 90-98c62 0 83 45 84 108H66c0 31 8 55 39 56 18 0 30-7 34-22zm-45-69c5-46-57-63-70-21-2 6-4 13-4 21h74" id="af"/><path fill="#333" d="M137-138c1-29-70-34-71-4 15 46 118 7 119 86 1 83-164 76-172 9l43-7c4 19 20 25 44 25 33 8 57-30 24-41C81-84 22-81 20-136c-2-80 154-74 161-7" id="ag"/><g id="w"><use transform="matrix(0.04938271604938272,0,0,0.04938271604938272,0,0)" xlink:href="#ae"/><use transform="matrix(0.04938271604938272,0,0,0.04938271604938272,10.864197530864198,0)" xlink:href="#af"/><use transform="matrix(0.04938271604938272,0,0,0.04938271604938272,20.74074074074074,0)" xlink:href="#ag"/></g><path fill="#333" d="M175 0L67-191c6 58 2 128 3 191H24v-248h59L193-55c-6-58-2-129-3-193h46V0h-61" id="ah"/><path fill="#333" d="M110-194c64 0 96 36 96 99 0 64-35 99-97 99-61 0-95-36-95-99 0-62 34-99 96-99zm-1 164c35 0 45-28 45-65 0-40-10-65-43-65-34 0-45 26-45 65 0 36 10 65 43 65" id="ai"/><g id="x"><use transform="matrix(0.04938271604938272,0,0,0.04938271604938272,0,0)" xlink:href="#ah"/><use transform="matrix(0.04938271604938272,0,0,0.04938271604938272,12.790123456790125,0)" xlink:href="#ai"/></g><path fill="#3a414a" d="M233-177c-1 41-23 64-60 70L243 0h-38l-65-103H63V0H30v-248c88 3 205-21 203 71zM63-129c60-2 137 13 137-47 0-61-80-42-137-45v92" id="aj"/><path fill="#3a414a" d="M135-143c-3-34-86-38-87 0 15 53 115 12 119 90S17 21 10-45l28-5c4 36 97 45 98 0-10-56-113-15-118-90-4-57 82-63 122-42 12 7 21 19 24 35" id="ak"/><g id="y"><use transform="matrix(0.06172839506172839,0,0,0.06172839506172839,0,0)" xlink:href="#aj"/><use transform="matrix(0.06172839506172839,0,0,0.06172839506172839,15.987654320987653,0)" xlink:href="#C"/><use transform="matrix(0.06172839506172839,0,0,0.06172839506172839,28.333333333333332,0)" xlink:href="#ac"/><use transform="matrix(0.06172839506172839,0,0,0.06172839506172839,40.67901234567901,0)" xlink:href="#B"/><use transform="matrix(0.06172839506172839,0,0,0.06172839506172839,45.55555555555556,0)" xlink:href="#ak"/><use transform="matrix(0.06172839506172839,0,0,0.06172839506172839,56.66666666666667,0)" xlink:href="#K"/><use transform="matrix(0.06172839506172839,0,0,0.06172839506172839,62.83950617283951,0)" xlink:href="#C"/><use transform="matrix(0.06172839506172839,0,0,0.06172839506172839,75.18518518518519,0)" xlink:href="#H"/></g><path fill="#3a414a" d="M30 0v-248h187v28H63v79h144v27H63v87h162V0H30" id="al"/><g id="z"><use transform="matrix(0.06172839506172839,0,0,0.06172839506172839,0,0)" xlink:href="#al"/><use transform="matrix(0.06172839506172839,0,0,0.06172839506172839,14.814814814814813,0)" xlink:href="#H"/><use transform="matrix(0.06172839506172839,0,0,0.06172839506172839,22.160493827160494,0)" xlink:href="#H"/><use transform="matrix(0.06172839506172839,0,0,0.06172839506172839,29.50617283950617,0)" xlink:href="#I"/><use transform="matrix(0.06172839506172839,0,0,0.06172839506172839,41.85185185185185,0)" xlink:href="#H"/></g></defs></g></svg>