<svg xmlns="http://www.w3.org/2000/svg" xmlns:xlink="http://www.w3.org/1999/xlink" xmlns:lucid="lucid" width="1704.88" height="1200"><g transform="translate(-35.203703703703695 -20)" lucid:page-tab-id="icoqZX3GmkeG"><path d="M0 0h1870.87v1322.84H0z" fill="#fff"/><path d="M380 46a6 6 0 0 1 6-6h1008a6 6 0 0 1 6 6v1148a6 6 0 0 1-6 6H386a6 6 0 0 1-6-6z" stroke="#3a414a" fill-opacity="0"/><path d="M159.75 159.75c0 10.9-8.84 19.75-19.75 19.75-10.9 0-19.75-8.84-19.75-19.75 0-10.9 8.84-19.75 19.75-19.75 10.9 0 19.75 8.84 19.75 19.75z" stroke="#3a414a" fill="#fff"/><path d="M140 179.5v49.3a20.7 20.7 0 0 0 3.2 11.07L180 298m-40-63.2L100 298m0-98.75h80" stroke="#3a414a" fill="none"/><path d="M100 146a6 6 0 0 1 6-6h68a6 6 0 0 1 6 6v168a6 6 0 0 1-6 6h-68a6 6 0 0 1-6-6z" fill="none"/><use xlink:href="#a" transform="matrix(1,0,0,1,20,298) translate(85.5246913580247 17.77777777777778)"/><path d="M800 160c0 33.14-44.77 60-100 60s-100-26.86-100-60 44.77-60 100-60 100 26.86 100 60z" stroke="#3a414a" fill="#fff"/><use xlink:href="#b" transform="matrix(1,0,0,1,600,100) translate(33.105 63.15)"/><use xlink:href="#c" transform="matrix(1,0,0,1,600,100) translate(103.055 63.15)"/><path d="M141 218.86l443.98-67.47M141 218.85l-3.47.53" stroke="#3a414a" fill="none"/><path d="M599.58 149.18l-13.4 6.72-1.4-9.16z" stroke="#3a414a" fill="#3a414a"/><path d="M159.75 559.75c0 10.9-8.84 19.75-19.75 19.75-10.9 0-19.75-8.84-19.75-19.75 0-10.9 8.84-19.75 19.75-19.75 10.9 0 19.75 8.84 19.75 19.75z" stroke="#3a414a" fill="#fff"/><path d="M140 579.5v49.3a20.7 20.7 0 0 0 3.2 11.07L180 698m-40-63.2L100 698m0-98.75h80" stroke="#3a414a" fill="none"/><path d="M100 546a6 6 0 0 1 6-6h68a6 6 0 0 1 6 6v168a6 6 0 0 1-6 6h-68a6 6 0 0 1-6-6z" fill="none"/><use xlink:href="#d" transform="matrix(1,0,0,1,20,698) translate(36.203703703703695 17.77777777777778)"/><use xlink:href="#e" transform="matrix(1,0,0,1,20,698) translate(156.94444444444446 17.77777777777778)"/><path d="M980 720c0 33.14-35.82 60-80 60s-80-26.86-80-60 35.82-60 80-60 80 26.86 80 60z" stroke="#3a414a" fill="#fff"/><use xlink:href="#f" transform="matrix(1,0,0,1,820,660) translate(18.304999999999986 63.15)"/><use xlink:href="#g" transform="matrix(1,0,0,1,820,660) translate(61.85499999999999 63.15)"/><path d="M141 619l662.3 98.6M141 619l-3.47-.5" stroke="#3a414a" fill="none"/><path d="M817.9 719.76l-14.8 2.5 1.37-9.18z" stroke="#3a414a" fill="#3a414a"/><path d="M1679.75 139.75c0 10.9-8.84 19.75-19.75 19.75-10.9 0-19.75-8.84-19.75-19.75 0-10.9 8.84-19.75 19.75-19.75 10.9 0 19.75 8.84 19.75 19.75z" stroke="#3a414a" fill="#fff"/><path d="M1660 159.5v49.3a20.7 20.7 0 0 0 3.2 11.07L1700 278m-40-63.2l-40 63.2m0-98.75h80" stroke="#3a414a" fill="none"/><path d="M1620 126a6 6 0 0 1 6-6h68a6 6 0 0 1 6 6v168a6 6 0 0 1-6 6h-68a6 6 0 0 1-6-6z" fill="none"/><use xlink:href="#h" transform="matrix(1,0,0,1,1540,278) translate(72.62345679012346 17.77777777777778)"/><path d="M1679.75 719.75c0 10.9-8.84 19.75-19.75 19.75-10.9 0-19.75-8.84-19.75-19.75 0-10.9 8.84-19.75 19.75-19.75 10.9 0 19.75 8.84 19.75 19.75z" stroke="#3a414a" fill="#fff"/><path d="M1660 739.5v49.3a20.7 20.7 0 0 0 3.2 11.07L1700 858m-40-63.2l-40 63.2m0-98.75h80" stroke="#3a414a" fill="none"/><path d="M1620 706a6 6 0 0 1 6-6h68a6 6 0 0 1 6 6v168a6 6 0 0 1-6 6h-68a6 6 0 0 1-6-6z" fill="none"/><use xlink:href="#i" transform="matrix(1,0,0,1,1540,858) translate(62.067901234567906 17.77777777777778)"/><use xlink:href="#e" transform="matrix(1,0,0,1,1540,858) translate(131.08024691358025 17.77777777777778)"/><path d="M141 219.05L603.6 336M141 219.06l-3.4-.86" stroke="#3a414a" fill="none"/><path d="M617.93 339.6l-14.96 1 2.27-9z" stroke="#3a414a" fill="#3a414a"/><path d="M800 340c0 33.14-40.3 60-90 60s-90-26.86-90-60 40.3-60 90-60 90 26.86 90 60z" stroke="#3a414a" fill="#fff"/><use xlink:href="#b" transform="matrix(1,0,0,1,620,280) translate(37.55499999999999 63.15)"/><use xlink:href="#j" transform="matrix(1,0,0,1,620,280) translate(107.505 63.15)"/><path d="M1659 779.04l-642.48 137.53M1659 779.04l3.43-.74" stroke="#3a414a" fill="none"/><path d="M1002.08 919.66l12.98-7.52 1.94 9.07z" stroke="#3a414a" fill="#3a414a"/><path d="M1000 920c0 33.14-35.82 60-80 60s-80-26.86-80-60 35.82-60 80-60 80 26.86 80 60z" stroke="#3a414a" fill="#fff"/><use xlink:href="#k" transform="matrix(1,0,0,1,840,860) translate(16.07999999999999 63.15)"/><use xlink:href="#l" transform="matrix(1,0,0,1,840,860) translate(78.03 63.15)"/><path d="M1659.05 779.15l-643.82 313.67M1659.04 779.16l3.16-1.54" stroke="#3a414a" fill="none"/><path d="M1001.96 1099.3l10.8-10.42 4.05 8.33z" stroke="#3a414a" fill="#3a414a"/><path d="M1000 1100c0 33.14-35.82 60-80 60s-80-26.86-80-60 35.82-60 80-60 80 26.86 80 60z" stroke="#3a414a" fill="#fff"/><use xlink:href="#m" transform="matrix(1,0,0,1,840,1040) translate(24.654999999999994 63.15)"/><use xlink:href="#l" transform="matrix(1,0,0,1,840,1040) translate(69.455 63.15)"/><path d="M140.96 619.13l683.5 294.4M140.97 619.13l-3.22-1.38" stroke="#3a414a" fill="none"/><path d="M838 919.36l-14.92-1.4 3.66-8.5z" stroke="#3a414a" fill="#3a414a"/><path d="M140.9 619.2l685.1 471.5M140.92 619.22l-2.9-2" stroke="#3a414a" fill="none"/><path d="M838.17 1099.08l-14.38-4.27 5.24-7.62z" stroke="#3a414a" fill="#3a414a"/><path d="M1659 778.9L996.82 721.4M1659 778.9l3.5.3" stroke="#3a414a" fill="none"/><path d="M982.1 720.14l14.63-3.38-.8 9.23z" stroke="#3a414a" fill="#3a414a"/><path d="M1659 198.9l-462.17-37.57M1659 198.9l3.5.28" stroke="#3a414a" fill="none"/><path d="M1182.1 160.13l14.6-3.46-.74 9.24z" stroke="#3a414a" fill="#3a414a"/><path d="M1180 160c0 33.14-40.3 60-90 60s-90-26.86-90-60 40.3-60 90-60 90 26.86 90 60z" stroke="#3a414a" fill="#fff"/><use xlink:href="#b" transform="matrix(1,0,0,1,1000,100) translate(22.07999999999999 63.15)"/><use xlink:href="#l" transform="matrix(1,0,0,1,1000,100) translate(92.03 63.15)"/><path d="M1659.02 199.05L1196.38 316M1659 199.06l3.4-.86" stroke="#3a414a" fill="none"/><path d="M1182.07 319.6l12.7-8 2.27 9z" stroke="#3a414a" fill="#3a414a"/><path d="M1180 320c0 33.14-40.3 60-90 60s-90-26.86-90-60 40.3-60 90-60 90 26.86 90 60z" stroke="#3a414a" fill="#fff"/><use xlink:href="#n" transform="matrix(1,0,0,1,1000,260) translate(17.07999999999999 63.15)"/><use xlink:href="#o" transform="matrix(1,0,0,1,1000,260) translate(77.08 63.15)"/><path d="M1659.58 216l-445.15 275.38M1659.56 216l3-1.84" stroke="#3a414a" fill="none"/><path d="M1201.88 499.15l9.7-11.45 4.87 7.88z" stroke="#3a414a" fill="#3a414a"/><path d="M1200 500c0 33.14-40.3 60-90 60s-90-26.86-90-60 40.3-60 90-60 90 26.86 90 60z" stroke="#3a414a" fill="#fff"/><g><use xlink:href="#p" transform="matrix(1,0,0,1,1020,440) translate(23.07999999999999 51.9)"/><use xlink:href="#q" transform="matrix(1,0,0,1,1020,440) translate(53.529999999999994 73.5)"/></g><path d="M141 618.87l662.23-76.98M141 618.87l-3.48.4" stroke="#3a414a" fill="none"/><path d="M817.9 540.2l-13.64 6.24-1.07-9.2z" stroke="#3a414a" fill="#3a414a"/><path d="M980 540c0 33.14-35.82 60-80 60s-80-26.86-80-60 35.82-60 80-60 80 26.86 80 60z" stroke="#3a414a" fill="#fff"/><g><use xlink:href="#r" transform="matrix(1,0,0,1,820,480) translate(52.05499999999999 51.9)"/><use xlink:href="#s" transform="matrix(1,0,0,1,820,480) translate(37.07999999999999 73.5)"/></g><defs><path fill="#3a414a" d="M199 0l-22-63H83L61 0H9l90-248h61L250 0h-51zm-33-102l-36-108c-10 38-24 72-36 108h72" id="t"/><path fill="#3a414a" d="M88-194c31-1 46 15 58 34l-1-101h50l1 261h-48c-2-10 0-23-3-31C134-8 116 4 84 4 32 4 16-41 15-95c0-56 19-97 73-99zm17 164c33 0 40-30 41-66 1-37-9-64-41-64s-38 30-39 65c0 43 13 65 39 65" id="u"/><path fill="#3a414a" d="M220-157c-53 9-28 100-34 157h-49v-107c1-27-5-49-29-50C55-147 81-57 75 0H25l-1-190h47c2 12-1 28 3 38 10-53 101-56 108 0 13-22 24-43 59-42 82 1 51 116 57 194h-49v-107c-1-25-5-48-29-50" id="v"/><path fill="#3a414a" d="M25-224v-37h50v37H25zM25 0v-190h50V0H25" id="w"/><path fill="#3a414a" d="M135-194c87-1 58 113 63 194h-50c-7-57 23-157-34-157-59 0-34 97-39 157H25l-1-190h47c2 12-1 28 3 38 12-26 28-41 61-42" id="x"/><g id="a"><use transform="matrix(0.06172839506172839,0,0,0.06172839506172839,0,0)" xlink:href="#t"/><use transform="matrix(0.06172839506172839,0,0,0.06172839506172839,15.987654320987653,0)" xlink:href="#u"/><use transform="matrix(0.06172839506172839,0,0,0.06172839506172839,29.50617283950617,0)" xlink:href="#v"/><use transform="matrix(0.06172839506172839,0,0,0.06172839506172839,49.25925925925925,0)" xlink:href="#w"/><use transform="matrix(0.06172839506172839,0,0,0.06172839506172839,55.432098765432094,0)" xlink:href="#x"/></g><path d="M240 0l2-218c-23 76-54 145-80 218h-23L58-218 59 0H30v-248h44l77 211c21-75 51-140 76-211h43V0h-30" id="y"/><path d="M141-36C126-15 110 5 73 4 37 3 15-17 15-53c-1-64 63-63 125-63 3-35-9-54-41-54-24 1-41 7-42 31l-33-3c5-37 33-52 76-52 45 0 72 20 72 64v82c-1 20 7 32 28 27v20c-31 9-61-2-59-35zM48-53c0 20 12 33 32 33 41-3 63-29 60-74-43 2-92-5-92 41" id="z"/><path d="M117-194c89-4 53 116 60 194h-32v-121c0-31-8-49-39-48C34-167 62-67 57 0H25l-1-190h30c1 10-1 24 2 32 11-22 29-35 61-36" id="A"/><path d="M177-190C167-65 218 103 67 71c-23-6-38-20-44-43l32-5c15 47 100 32 89-28v-30C133-14 115 1 83 1 29 1 15-40 15-95c0-56 16-97 71-98 29-1 48 16 59 35 1-10 0-23 2-32h30zM94-22c36 0 50-32 50-73 0-42-14-75-50-75-39 0-46 34-46 75s6 73 46 73" id="B"/><path d="M100-194c63 0 86 42 84 106H49c0 40 14 67 53 68 26 1 43-12 49-29l28 8c-11 28-37 45-77 45C44 4 14-33 15-96c1-61 26-98 85-98zm52 81c6-60-76-77-97-28-3 7-6 17-6 28h103" id="C"/><g id="b"><use transform="matrix(0.05,0,0,0.05,0,0)" xlink:href="#y"/><use transform="matrix(0.05,0,0,0.05,14.950000000000001,0)" xlink:href="#z"/><use transform="matrix(0.05,0,0,0.05,24.950000000000003,0)" xlink:href="#A"/><use transform="matrix(0.05,0,0,0.05,34.95,0)" xlink:href="#z"/><use transform="matrix(0.05,0,0,0.05,44.95,0)" xlink:href="#B"/><use transform="matrix(0.05,0,0,0.05,54.95,0)" xlink:href="#C"/></g><path d="M24 0v-261h32V0H24" id="D"/><path d="M85-194c31 0 48 13 60 33l-1-100h32l1 261h-30c-2-10 0-23-3-31C134-8 116 4 85 4 32 4 16-35 15-94c0-66 23-100 70-100zm9 24c-40 0-46 34-46 75 0 40 6 74 45 74 42 0 51-32 51-76 0-42-9-74-50-73" id="E"/><path d="M100-194c62-1 85 37 85 99 1 63-27 99-86 99S16-35 15-95c0-66 28-99 85-99zM99-20c44 1 53-31 53-75 0-43-8-75-51-75s-53 32-53 75 10 74 51 75" id="F"/><path d="M114-163C36-179 61-72 57 0H25l-1-190h30c1 12-1 29 2 39 6-27 23-49 58-41v29" id="G"/><g id="c"><use transform="matrix(0.05,0,0,0.05,0,0)" xlink:href="#D"/><use transform="matrix(0.05,0,0,0.05,3.95,0)" xlink:href="#z"/><use transform="matrix(0.05,0,0,0.05,13.949999999999998,0)" xlink:href="#A"/><use transform="matrix(0.05,0,0,0.05,23.95,0)" xlink:href="#E"/><use transform="matrix(0.05,0,0,0.05,33.95,0)" xlink:href="#D"/><use transform="matrix(0.05,0,0,0.05,37.900000000000006,0)" xlink:href="#F"/><use transform="matrix(0.05,0,0,0.05,47.900000000000006,0)" xlink:href="#G"/><use transform="matrix(0.05,0,0,0.05,53.85,0)" xlink:href="#E"/></g><path fill="#3a414a" d="M240-174c0 40-23 61-54 70L253 0h-59l-57-94H76V0H24v-248c93 4 217-23 216 74zM76-134c48-2 112 12 112-38 0-48-66-32-112-35v73" id="H"/><path fill="#3a414a" d="M185-48c-13 30-37 53-82 52C43 2 14-33 14-96s30-98 90-98c62 0 83 45 84 108H66c0 31 8 55 39 56 18 0 30-7 34-22zm-45-69c5-46-57-63-70-21-2 6-4 13-4 21h74" id="I"/><path fill="#3a414a" d="M195-6C206 82 75 100 31 46c-4-6-6-13-8-21l49-6c3 16 16 24 34 25 40 0 42-37 40-79-11 22-30 35-61 35-53 0-70-43-70-97 0-56 18-96 73-97 30 0 46 14 59 34l2-30h47zm-90-29c32 0 41-27 41-63 0-35-9-62-40-62-32 0-39 29-40 63 0 36 9 62 39 62" id="J"/><path fill="#3a414a" d="M137-138c1-29-70-34-71-4 15 46 118 7 119 86 1 83-164 76-172 9l43-7c4 19 20 25 44 25 33 8 57-30 24-41C81-84 22-81 20-136c-2-80 154-74 161-7" id="K"/><path fill="#3a414a" d="M115-3C79 11 28 4 28-45v-112H4v-33h27l15-45h31v45h36v33H77v99c-1 23 16 31 38 25v30" id="L"/><path fill="#3a414a" d="M135-150c-39-12-60 13-60 57V0H25l-1-190h47c2 13-1 29 3 40 6-28 27-53 61-41v41" id="M"/><g id="d"><use transform="matrix(0.06172839506172839,0,0,0.06172839506172839,0,0)" xlink:href="#H"/><use transform="matrix(0.06172839506172839,0,0,0.06172839506172839,15.987654320987653,0)" xlink:href="#I"/><use transform="matrix(0.06172839506172839,0,0,0.06172839506172839,28.333333333333332,0)" xlink:href="#J"/><use transform="matrix(0.06172839506172839,0,0,0.06172839506172839,41.85185185185185,0)" xlink:href="#w"/><use transform="matrix(0.06172839506172839,0,0,0.06172839506172839,48.02469135802469,0)" xlink:href="#K"/><use transform="matrix(0.06172839506172839,0,0,0.06172839506172839,60.37037037037037,0)" xlink:href="#L"/><use transform="matrix(0.06172839506172839,0,0,0.06172839506172839,67.71604938271605,0)" xlink:href="#I"/><use transform="matrix(0.06172839506172839,0,0,0.06172839506172839,80.06172839506173,0)" xlink:href="#M"/><use transform="matrix(0.06172839506172839,0,0,0.06172839506172839,88.70370370370371,0)" xlink:href="#I"/><use transform="matrix(0.06172839506172839,0,0,0.06172839506172839,101.0493827160494,0)" xlink:href="#u"/></g><path fill="#3a414a" d="M85 4C-2 5 27-109 22-190h50c7 57-23 150 33 157 60-5 35-97 40-157h50l1 190h-47c-2-12 1-28-3-38-12 25-28 42-61 42" id="N"/><g id="e"><use transform="matrix(0.06172839506172839,0,0,0.06172839506172839,0,0)" xlink:href="#N"/><use transform="matrix(0.06172839506172839,0,0,0.06172839506172839,13.518518518518517,0)" xlink:href="#K"/><use transform="matrix(0.06172839506172839,0,0,0.06172839506172839,25.864197530864196,0)" xlink:href="#I"/><use transform="matrix(0.06172839506172839,0,0,0.06172839506172839,38.20987654320987,0)" xlink:href="#M"/></g><path d="M137 0h-34L2-248h35l83 218 83-218h36" id="O"/><path d="M24-231v-30h32v30H24zM24 0v-190h32V0H24" id="P"/><path d="M206 0h-36l-40-164L89 0H53L-1-190h32L70-26l43-164h34l41 164 42-164h31" id="Q"/><g id="f"><use transform="matrix(0.05,0,0,0.05,0,0)" xlink:href="#O"/><use transform="matrix(0.05,0,0,0.05,11.65,0)" xlink:href="#P"/><use transform="matrix(0.05,0,0,0.05,15.600000000000001,0)" xlink:href="#C"/><use transform="matrix(0.05,0,0,0.05,25.6,0)" xlink:href="#Q"/></g><path d="M115-194c55 1 70 41 70 98S169 2 115 4C84 4 66-9 55-30l1 105H24l-1-265h31l2 30c10-21 28-34 59-34zm-8 174c40 0 45-34 45-75s-6-73-45-74c-42 0-51 32-51 76 0 43 10 73 51 73" id="R"/><path d="M59-47c-2 24 18 29 38 22v24C64 9 27 4 27-40v-127H5v-23h24l9-43h21v43h35v23H59v120" id="S"/><path d="M135-143c-3-34-86-38-87 0 15 53 115 12 119 90S17 21 10-45l28-5c4 36 97 45 98 0-10-56-113-15-118-90-4-57 82-63 122-42 12 7 21 19 24 35" id="T"/><g id="g"><use transform="matrix(0.05,0,0,0.05,0,0)" xlink:href="#R"/><use transform="matrix(0.05,0,0,0.05,10,0)" xlink:href="#G"/><use transform="matrix(0.05,0,0,0.05,15.949999999999998,0)" xlink:href="#F"/><use transform="matrix(0.05,0,0,0.05,25.950000000000003,0)" xlink:href="#R"/><use transform="matrix(0.05,0,0,0.05,35.95,0)" xlink:href="#C"/><use transform="matrix(0.05,0,0,0.05,45.95,0)" xlink:href="#G"/><use transform="matrix(0.05,0,0,0.05,51.900000000000006,0)" xlink:href="#S"/><use transform="matrix(0.05,0,0,0.05,56.900000000000006,0)" xlink:href="#P"/><use transform="matrix(0.05,0,0,0.05,60.85,0)" xlink:href="#C"/><use transform="matrix(0.05,0,0,0.05,70.85000000000001,0)" xlink:href="#T"/></g><path fill="#3a414a" d="M24 0v-248h52v208h133V0H24" id="U"/><path fill="#3a414a" d="M133-34C117-15 103 5 69 4 32 3 11-16 11-54c-1-60 55-63 116-61 1-26-3-47-28-47-18 1-26 9-28 27l-52-2c7-38 36-58 82-57s74 22 75 68l1 82c-1 14 12 18 25 15v27c-30 8-71 5-69-32zm-48 3c29 0 43-24 42-57-32 0-66-3-65 30 0 17 8 27 23 27" id="V"/><path fill="#3a414a" d="M25 0v-261h50V0H25" id="W"/><path fill="#3a414a" d="M110-194c64 0 96 36 96 99 0 64-35 99-97 99-61 0-95-36-95-99 0-62 34-99 96-99zm-1 164c35 0 45-28 45-65 0-40-10-65-43-65-34 0-45 26-45 65 0 36 10 65 43 65" id="X"/><g id="h"><use transform="matrix(0.06172839506172839,0,0,0.06172839506172839,0,0)" xlink:href="#U"/><use transform="matrix(0.06172839506172839,0,0,0.06172839506172839,13.518518518518517,0)" xlink:href="#V"/><use transform="matrix(0.06172839506172839,0,0,0.06172839506172839,25.864197530864196,0)" xlink:href="#x"/><use transform="matrix(0.06172839506172839,0,0,0.06172839506172839,39.382716049382715,0)" xlink:href="#u"/><use transform="matrix(0.06172839506172839,0,0,0.06172839506172839,52.901234567901234,0)" xlink:href="#W"/><use transform="matrix(0.06172839506172839,0,0,0.06172839506172839,59.074074074074076,0)" xlink:href="#X"/><use transform="matrix(0.06172839506172839,0,0,0.06172839506172839,72.5925925925926,0)" xlink:href="#M"/><use transform="matrix(0.06172839506172839,0,0,0.06172839506172839,81.23456790123457,0)" xlink:href="#u"/></g><path fill="#3a414a" d="M67-125c0 54 23 88 75 88 28 0 53-7 68-21v-34h-60v-39h108v91C232-14 192 4 140 4 58 4 20-42 15-125 8-236 126-280 215-234c19 10 29 26 37 47l-47 15c-11-23-29-39-63-39-53 1-75 33-75 86" id="Y"/><g id="i"><use transform="matrix(0.06172839506172839,0,0,0.06172839506172839,0,0)" xlink:href="#Y"/><use transform="matrix(0.06172839506172839,0,0,0.06172839506172839,17.28395061728395,0)" xlink:href="#N"/><use transform="matrix(0.06172839506172839,0,0,0.06172839506172839,30.80246913580247,0)" xlink:href="#I"/><use transform="matrix(0.06172839506172839,0,0,0.06172839506172839,43.148148148148145,0)" xlink:href="#K"/><use transform="matrix(0.06172839506172839,0,0,0.06172839506172839,55.49382716049382,0)" xlink:href="#L"/></g><path d="M84 4C-5 8 30-112 23-190h32v120c0 31 7 50 39 49 72-2 45-101 50-169h31l1 190h-30c-1-10 1-25-2-33-11 22-28 36-60 37" id="Z"/><g id="j"><use transform="matrix(0.05,0,0,0.05,0,0)" xlink:href="#Z"/><use transform="matrix(0.05,0,0,0.05,10,0)" xlink:href="#T"/><use transform="matrix(0.05,0,0,0.05,19,0)" xlink:href="#C"/><use transform="matrix(0.05,0,0,0.05,29,0)" xlink:href="#G"/></g><path d="M185-189c-5-48-123-54-124 2 14 75 158 14 163 119 3 78-121 87-175 55-17-10-28-26-33-46l33-7c5 56 141 63 141-1 0-78-155-14-162-118-5-82 145-84 179-34 5 7 8 16 11 25" id="aa"/><path d="M96-169c-40 0-48 33-48 73s9 75 48 75c24 0 41-14 43-38l32 2c-6 37-31 61-74 61-59 0-76-41-82-99-10-93 101-131 147-64 4 7 5 14 7 22l-32 3c-4-21-16-35-41-35" id="ab"/><path d="M106-169C34-169 62-67 57 0H25v-261h32l-1 103c12-21 28-36 61-36 89 0 53 116 60 194h-32v-121c2-32-8-49-39-48" id="ac"/><g id="k"><use transform="matrix(0.05,0,0,0.05,0,0)" xlink:href="#aa"/><use transform="matrix(0.05,0,0,0.05,12,0)" xlink:href="#C"/><use transform="matrix(0.05,0,0,0.05,22,0)" xlink:href="#z"/><use transform="matrix(0.05,0,0,0.05,32,0)" xlink:href="#G"/><use transform="matrix(0.05,0,0,0.05,37.95,0)" xlink:href="#ab"/><use transform="matrix(0.05,0,0,0.05,46.95,0)" xlink:href="#ac"/></g><path d="M179-190L93 31C79 59 56 82 12 73V49c39 6 53-20 64-50L1-190h34L92-34l54-156h33" id="ad"/><g id="l"><use transform="matrix(0.05,0,0,0.05,0,0)" xlink:href="#R"/><use transform="matrix(0.05,0,0,0.05,10,0)" xlink:href="#G"/><use transform="matrix(0.05,0,0,0.05,15.949999999999998,0)" xlink:href="#F"/><use transform="matrix(0.05,0,0,0.05,25.950000000000003,0)" xlink:href="#R"/><use transform="matrix(0.05,0,0,0.05,35.95,0)" xlink:href="#C"/><use transform="matrix(0.05,0,0,0.05,45.95,0)" xlink:href="#G"/><use transform="matrix(0.05,0,0,0.05,51.900000000000006,0)" xlink:href="#S"/><use transform="matrix(0.05,0,0,0.05,56.900000000000006,0)" xlink:href="#ad"/></g><path d="M63-220v92h138v28H63V0H30v-248h175v28H63" id="ae"/><g id="m"><use transform="matrix(0.05,0,0,0.05,0,0)" xlink:href="#ae"/><use transform="matrix(0.05,0,0,0.05,10.950000000000001,0)" xlink:href="#P"/><use transform="matrix(0.05,0,0,0.05,14.9,0)" xlink:href="#D"/><use transform="matrix(0.05,0,0,0.05,18.85,0)" xlink:href="#S"/><use transform="matrix(0.05,0,0,0.05,23.85,0)" xlink:href="#C"/><use transform="matrix(0.05,0,0,0.05,33.85,0)" xlink:href="#G"/></g><path d="M205 0l-28-72H64L36 0H1l101-248h38L239 0h-34zm-38-99l-47-123c-12 45-31 82-46 123h93" id="af"/><g id="n"><use transform="matrix(0.05,0,0,0.05,0,0)" xlink:href="#af"/><use transform="matrix(0.05,0,0,0.05,12,0)" xlink:href="#ab"/><use transform="matrix(0.05,0,0,0.05,21,0)" xlink:href="#ab"/><use transform="matrix(0.05,0,0,0.05,30,0)" xlink:href="#C"/><use transform="matrix(0.05,0,0,0.05,40,0)" xlink:href="#R"/><use transform="matrix(0.05,0,0,0.05,50,0)" xlink:href="#S"/></g><g id="o"><use transform="matrix(0.05,0,0,0.05,0,0)" xlink:href="#z"/><use transform="matrix(0.05,0,0,0.05,10,0)" xlink:href="#R"/><use transform="matrix(0.05,0,0,0.05,20,0)" xlink:href="#R"/><use transform="matrix(0.05,0,0,0.05,30,0)" xlink:href="#D"/><use transform="matrix(0.05,0,0,0.05,33.95,0)" xlink:href="#P"/><use transform="matrix(0.05,0,0,0.05,37.900000000000006,0)" xlink:href="#ab"/><use transform="matrix(0.05,0,0,0.05,46.900000000000006,0)" xlink:href="#z"/><use transform="matrix(0.05,0,0,0.05,56.900000000000006,0)" xlink:href="#S"/><use transform="matrix(0.05,0,0,0.05,61.900000000000006,0)" xlink:href="#P"/><use transform="matrix(0.05,0,0,0.05,65.85000000000001,0)" xlink:href="#F"/><use transform="matrix(0.05,0,0,0.05,75.85000000000001,0)" xlink:href="#A"/></g><path d="M30-248c87 1 191-15 191 75 0 78-77 80-158 76V0H30v-248zm33 125c57 0 124 11 124-50 0-59-68-47-124-48v98" id="ag"/><path d="M0 4l72-265h28L28 4H0" id="ah"/><path d="M108 0H70L1-190h34L89-25l56-165h34" id="ai"/><g id="p"><use transform="matrix(0.05,0,0,0.05,0,0)" xlink:href="#ag"/><use transform="matrix(0.05,0,0,0.05,12,0)" xlink:href="#G"/><use transform="matrix(0.05,0,0,0.05,17.95,0)" xlink:href="#C"/><use transform="matrix(0.05,0,0,0.05,27.950000000000003,0)" xlink:href="#R"/><use transform="matrix(0.05,0,0,0.05,37.95,0)" xlink:href="#z"/><use transform="matrix(0.05,0,0,0.05,47.95,0)" xlink:href="#G"/><use transform="matrix(0.05,0,0,0.05,53.900000000000006,0)" xlink:href="#C"/><use transform="matrix(0.05,0,0,0.05,63.900000000000006,0)" xlink:href="#ah"/><use transform="matrix(0.05,0,0,0.05,68.9,0)" xlink:href="#z"/><use transform="matrix(0.05,0,0,0.05,78.9,0)" xlink:href="#R"/><use transform="matrix(0.05,0,0,0.05,88.9,0)" xlink:href="#R"/><use transform="matrix(0.05,0,0,0.05,98.9,0)" xlink:href="#G"/><use transform="matrix(0.05,0,0,0.05,104.85000000000001,0)" xlink:href="#F"/><use transform="matrix(0.05,0,0,0.05,114.85000000000001,0)" xlink:href="#ai"/><use transform="matrix(0.05,0,0,0.05,123.85000000000001,0)" xlink:href="#C"/></g><g id="q"><use transform="matrix(0.05,0,0,0.05,0,0)" xlink:href="#ab"/><use transform="matrix(0.05,0,0,0.05,9,0)" xlink:href="#F"/><use transform="matrix(0.05,0,0,0.05,19,0)" xlink:href="#A"/><use transform="matrix(0.05,0,0,0.05,29,0)" xlink:href="#S"/><use transform="matrix(0.05,0,0,0.05,34,0)" xlink:href="#G"/><use transform="matrix(0.05,0,0,0.05,39.95,0)" xlink:href="#z"/><use transform="matrix(0.05,0,0,0.05,49.95,0)" xlink:href="#ab"/><use transform="matrix(0.05,0,0,0.05,58.95,0)" xlink:href="#S"/><use transform="matrix(0.05,0,0,0.05,63.95,0)" xlink:href="#T"/></g><path d="M115-194c53 0 69 39 70 98 0 66-23 100-70 100C84 3 66-7 56-30L54 0H23l1-261h32v101c10-23 28-34 59-34zm-8 174c40 0 45-34 45-75 0-40-5-75-45-74-42 0-51 32-51 76 0 43 10 73 51 73" id="aj"/><path d="M210-169c-67 3-38 105-44 169h-31v-121c0-29-5-50-35-48C34-165 62-65 56 0H25l-1-190h30c1 10-1 24 2 32 10-44 99-50 107 0 11-21 27-35 58-36 85-2 47 119 55 194h-31v-121c0-29-5-49-35-48" id="ak"/><g id="r"><use transform="matrix(0.05,0,0,0.05,0,0)" xlink:href="#aa"/><use transform="matrix(0.05,0,0,0.05,12,0)" xlink:href="#Z"/><use transform="matrix(0.05,0,0,0.05,22,0)" xlink:href="#aj"/><use transform="matrix(0.05,0,0,0.05,32,0)" xlink:href="#ak"/><use transform="matrix(0.05,0,0,0.05,46.95,0)" xlink:href="#P"/><use transform="matrix(0.05,0,0,0.05,50.900000000000006,0)" xlink:href="#S"/></g><g id="s"><use transform="matrix(0.05,0,0,0.05,0,0)" xlink:href="#z"/><use transform="matrix(0.05,0,0,0.05,10,0)" xlink:href="#R"/><use transform="matrix(0.05,0,0,0.05,20,0)" xlink:href="#R"/><use transform="matrix(0.05,0,0,0.05,30,0)" xlink:href="#D"/><use transform="matrix(0.05,0,0,0.05,33.95,0)" xlink:href="#P"/><use transform="matrix(0.05,0,0,0.05,37.900000000000006,0)" xlink:href="#ab"/><use transform="matrix(0.05,0,0,0.05,46.900000000000006,0)" xlink:href="#z"/><use transform="matrix(0.05,0,0,0.05,56.900000000000006,0)" xlink:href="#P"/><use transform="matrix(0.05,0,0,0.05,60.85,0)" xlink:href="#S"/><use transform="matrix(0.05,0,0,0.05,65.85000000000001,0)" xlink:href="#F"/><use transform="matrix(0.05,0,0,0.05,75.85000000000001,0)" xlink:href="#A"/></g></defs></g></svg>